<svg height="52" viewBox="0 0 47 52" width="47" xmlns="http://www.w3.org/2000/svg"><g fill="none" fill-rule="evenodd" transform="translate(-2)"><path d="m.410923 0h49.275362v53.623188h-49.275362z"/><path d="m22.8419651 48.9277795-2.8143992-5.7306724h-1.5381019v8.2521683h1.374474v-5.894406h.0327256l2.8798504 5.894406h1.4726508v-8.2521683h-1.4071997zm-6.5778401-11.5268383-1.2762973 4.4208045h.7854137l.2618046-.9169076h1.3090229l.229079.9169076h.8181393l-1.2435717-4.4208045c-.0327256 0-.8835905 0-.8835905 0zm-.0327256 2.7507228.4581581-1.7355751.4254324 1.7355751zm-5.1379149-.5239472c0-2.0630421-1.24357173-2.3250157-1.70172975-2.3250157s-1.70172978.2619736-1.70172978 2.3250157 1.24357176 2.3250157 1.70172978 2.3250157c.19635344 0 .58906031-.0654934.91631605-.2947203l.4254324.4912005.3927069-.4912005-.3927069-.4584538c.1963535-.3602137.3599813-.8514142.3599813-1.5718416zm-.8835904.9169076-.3927069-.4257071-.39270688.4912005.3599813.4257071c-.13090229.0982401-.26180458.1309868-.39270687.1309868-.39270687 0-.98176718-.2947203-.98176718-1.5390949s.55633474-1.5390949.98176718-1.5390949c.39270687 0 .98176715.2947203.98176715 1.5390949-.0327255.3929604-.0654511.7204274-.1636278.9169076zm8.6395512-3.1436832v4.4208045h2.5198691v-.7859208h-1.767181v-3.602137zm7.886863 4.4208045h.7526882v-4.4208045h-.7526882v1.6700817h-1.3744741v-1.6700817h-.7526881v4.4208045h.7526881v-1.964802h1.3744741zm-13.941094 6.0253927h3.4361851v-1.4736015h-3.4361851v-1.7355751h3.7307153v-1.4408547h-5.1706405v8.2521683h5.3342684v-1.4736015h-3.8943432zm-5.62879849-9.6602764v-.7859208h-2.61804582v4.4208045h2.68349696v-.7859208h-1.96353436v-1.1461345h1.73445536v-.7859208h-1.73445536v-.9169076zm-.98176718 5.0102451h-1.47265077v8.2521683h4.97428705v-1.5063482h-3.50163628zm5.49789617-5.7961659v2.9144563c0 .4584538.0981768.7859208.2618046 1.0806411.3272557.4257071.8181393.5239472 1.1453951.5239472.8835904 0 1.4726507-.4912005 1.4726507-1.6700817v-2.8817096h-.7526881v2.9144563c0 .5239472-.1963535.8514142-.7199626.8514142-.3599813 0-.6217859-.2619736-.6217859-.8841609v-2.8489629zm27.194951 4.4208045h.7526881v-4.4208045h-.7526881zm7.9195885 7.7609678c0-1.5390949-.3272557-1.8010685-.8835904-2.0957888.687237-.2619736 1.0799439-1.0478944 1.0799439-1.964802 0-.7204274-.3599813-2.3250156-2.225339-2.3250156h-3.5670874v8.2521683h1.4399252v-3.2419233h1.5053764c1.0799439 0 1.145395.4257071 1.145395 1.5718416 0 .8514142.0654511 1.2771213.1636279 1.6700817h1.6362786v-.2292269c-.2945302-.1309868-.2945302-.4257071-.2945302-1.637335zm-2.4216923-2.7507228h-1.7344554v-2.1940289h1.8326321c.8508649 0 1.0144927.654934 1.0144927 1.0806411.0327256.7859208-.3272557 1.1133878-1.1126694 1.1133878zm-7.4614306-5.665179c-.6545115 0-.7526882-.4584538-.7526882-.7204274h-.7199626c0 .5566939.229079 1.4736015 1.5053764 1.4736015.3272557 0 1.4071996-.1309868 1.4071996-1.4408548 0-.7859208-.458158-1.0478944-.916316-1.1788812l-.8508649-.2619736c-.1636279-.0327467-.3599813-.1309868-.3599813-.4584538 0-.3929604.3272557-.5239472.6217858-.5239472.6545115 0 .7199626.4584538.7199626.654934h.7199626c0-.5566939-.2945301-1.4081081-1.374474-1.4081081-1.1453951 0-1.3744741.8514142-1.3744741 1.3426147 0 .982401.5563348 1.1461345 1.1126695 1.309868l.3927069.0982401c.3927069.0982401.6545114.1964802.6545114.5566939-.0327255.4584538-.4254324.5566939-.7854137.5566939zm6.2505844.654934v-4.4208045h-.6872371v3.0781898l-1.4071996-3.0781898h-.7854137v4.4208045h.687237v-3.1436832l1.4399252 3.1436832zm2.3562412-3.7658705c.5236092 0 .7854138.5566939.7854138.7204274h.7526881c-.0327255-.6221873-.458158-1.4736015-1.5708275-1.4736015-1.2108462 0-1.7344553 1.1133878-1.7344553 2.3250157 0 1.5390949.7854137 2.3250157 1.6362786 2.3250157.6545115 0 .9163161-.3929604 1.1126695-.6876807l.0654511.5566939h.4908836v-2.3905091h-1.4726507v.7531741h.8181393c-.1636279.8841609-.6872371.982401-.8508649.982401-.4908836 0-1.0472183-.327467-1.0472183-1.5063482-.0327256-1.1461345.458158-1.6045883 1.0144927-1.6045883zm-10.6030855 2.2267756v-2.8817096h-.7526882v2.9144563c0 .5239472-.1963535.8514142-.7199626.8514142-.3599813 0-.6217859-.2619736-.6217859-.8841609v-2.8489629h-.7526882v2.9144563c0 .4584538.0981767.7859208.2618046 1.0806411.3272557.4257071.7854138.5239472 1.1126695.5239472.8835904-.0327467 1.4726508-.5239472 1.4726508-1.6700817zm.5236091 7.5644876h3.4361852v-1.4736015h-3.4361852v-1.7355751h3.7634409v-1.4408547h-5.1706405v8.2521683h5.3342683v-1.4736015h-3.8943431zm-3.9925198-8.2521683c0-2.0630421-1.2435718-2.3250157-1.7017298-2.3250157s-1.7017298.2619736-1.7017298 2.3250157 1.2435718 2.3250157 1.7017298 2.3250157c.4908836 0 1.7017298-.2292269 1.7017298-2.3250157zm-2.6507714 0c0-1.2443746.5563347-1.5390949.9817671-1.5390949.3927069 0 .9817672.2947203.9817672 1.5390949s-.5563347 1.5390949-.9817672 1.5390949c-.4254324.0327467-.9817671-.2947203-.9817671-1.5390949zm.5890603 3.602137h-3.1089294v8.2521683h3.0434782c2.3235157 0 2.912576-2.5542426 2.912576-4.3225644.0327256-1.5718416-.458158-3.9296039-2.8471248-3.9296039zm-.229079 6.8113135h-1.4399252v-5.4032055h1.4071996c.6217859 0 1.6035531.1964802 1.6035531 2.619736.0327255 1.3753614-.3927069 2.7834695-1.5708275 2.7834695zm-3.7307153-49.28378292-22.84244977 11.72331842v4.7482715l2.5198691.0327467v17.0610305h40.44880787l-.0327256-17.0937772h2.7162225v-4.7482715zm15.6428237 29.04632252h-31.44927534v-15.1617219l15.80645164-8.15392819 15.6428237 8.15392819zm-23.1369799-11.1666245h14.8246845v-4.0933375h-14.8246845zm0 7.3680074h14.7592333v-4.0933375h-14.7592333z" fill="#fff" fill-rule="nonzero"/></g></svg>